PathFileType	4	(X/Y/Z)	D:\TRACE\spotREDO_2-26-24\spot_justArm_Motion_3_1-platform.trc
DataRate	CameraRate	NumFrames	NumMarkers	Units	OrigDataRate	OrigDataStartFrame	OrigNumFrames
100.00	100.00	      60	5	mm	100.00	876	      7000
Frame#	Time	Left_Front			Right_Front			Left_Aft			Right_Aft			Post			
		X1	Y1	Z1	X2	Y2	Z2	X3	Y3	Z3	X4	Y4	Z4	X5	Y5	Z5	

876	8.750	-691.46777	-29.39811	-581.56036	723.20514	-17.24639	-497.06088	-762.99377	30.74864	635.95349	806.07916	37.36406	640.56104	18.20672	579.89655	-1014.07367	
877	8.760	-691.43005	-29.15672	-581.51746	723.14514	-16.99803	-496.99072	-762.95691	30.62023	636.07886	806.17017	37.22042	640.65601	18.34169	580.26605	-1013.65063	
878	8.770	-691.47931	-28.86017	-581.45996	723.23169	-16.79102	-496.95993	-762.90515	30.39535	636.22778	806.07349	37.02257	640.75037	17.86130	580.72443	-1013.58417	
879	8.780	-691.48810	-28.71165	-581.38904	723.32739	-16.58428	-496.89648	-762.91028	30.13206	636.33258	806.10797	36.89717	640.90082	17.84661	581.01221	-1013.39801	
880	8.790	-691.54736	-28.47834	-581.35010	723.39850	-16.49456	-496.87225	-762.89032	29.96566	636.36902	806.09943	36.66239	640.99323	17.94220	581.43561	-1012.96411	
881	8.800	-691.52148	-28.38988	-581.32074	723.38385	-16.28221	-496.94513	-762.82648	29.85629	636.37366	806.19714	36.44405	641.10870	18.04754	581.74744	-1012.82153	
882	8.810	-691.54895	-28.23076	-581.27991	723.32648	-15.94839	-496.98645	-762.83221	29.75590	636.44940	806.19061	36.28911	641.13586	18.10920	582.07947	-1012.61230	
883	8.820	-691.48505	-28.10891	-581.28381	723.39960	-15.74459	-496.93378	-762.81818	29.66474	636.43823	806.11890	36.12982	641.18719	18.20773	582.26929	-1012.53815	
884	8.830	-691.35345	-28.02156	-581.27850	723.52094	-15.60361	-496.91193	-762.57910	29.28864	636.59271	806.26575	35.80305	641.17560	18.33574	582.45728	-1012.55212	
885	8.840	-691.23029	-27.91028	-581.24738	723.77283	-15.47298	-496.82632	-762.49835	29.19733	636.61090	806.26740	35.71704	641.14594	18.44869	582.69421	-1012.52515	
886	8.850	-690.95190	-27.71510	-581.21936	723.92542	-15.37267	-496.79517	-762.40576	29.14626	636.64746	806.38849	35.60633	641.16235	18.62052	582.99176	-1012.41876	
887	8.860	-690.62616	-27.58374	-581.15741	724.07233	-15.29979	-496.76776	-762.33923	29.07747	636.69965	806.61823	35.48293	641.25793	18.82286	583.24774	-1012.17999	
888	8.870	-690.52582	-27.37842	-581.12958	724.08594	-15.25235	-496.78604	-762.23248	28.83974	636.73682	806.70135	35.41507	641.26215	18.93139	583.47894	-1012.02820	
889	8.880	-690.52527	-27.22830	-581.09595	724.13580	-15.17990	-496.76913	-762.13580	28.67301	636.78094	806.80408	35.35766	641.29785	19.00903	583.73376	-1011.73688	
890	8.890	-690.44159	-27.12261	-581.01392	724.19415	-15.08890	-496.75064	-761.96521	28.46642	636.80365	806.93616	35.25061	641.31708	19.09676	583.95209	-1011.45129	
891	8.900	-690.35675	-27.00449	-581.05798	724.27161	-14.92768	-496.80127	-761.83484	28.37818	636.83405	807.14685	35.10671	641.37573	19.13876	584.09900	-1011.28387	
892	8.910	-690.26025	-26.95989	-581.06354	724.40521	-14.85269	-496.79803	-761.68817	28.28833	636.83221	807.49945	34.79175	641.37091	19.24962	584.24304	-1011.06116	
893	8.920	-690.11877	-26.88808	-581.03851	724.55963	-14.75947	-496.60373	-761.51746	28.22933	636.86658	807.78326	34.67674	641.35345	19.51602	584.36267	-1010.91626	
894	8.930	-689.89838	-26.80202	-581.01111	724.71521	-14.62790	-496.62671	-761.33618	28.15080	636.94971	807.87103	34.63271	641.45636	20.03723	584.53064	-1010.51324	
895	8.940	-689.62683	-26.70868	-580.89508	724.77118	-14.57294	-496.61777	-761.17188	28.02155	636.94623	807.98822	34.49241	641.46881	19.87403	584.74323	-1010.67725	
896	8.950	-689.39539	-26.56292	-580.86298	725.04895	-14.48065	-496.53806	-761.05225	27.94475	636.96429	808.06470	34.47237	641.52972	20.01736	584.98444	-1010.62952	
897	8.960	-689.29730	-26.42645	-580.87756	725.17419	-14.34186	-496.56390	-760.85126	27.84874	637.01910	808.19574	34.47314	641.53186	20.14031	585.16089	-1010.56232	
898	8.970	-689.11774	-26.31697	-580.98126	725.47797	-14.32150	-496.53751	-760.57916	27.79282	637.01501	808.41486	34.41661	641.55121	20.32671	585.33069	-1010.52631	
899	8.980	-688.97156	-26.20206	-580.97076	725.69482	-14.21634	-496.60733	-760.32507	27.70784	637.04718	808.85535	34.50875	641.47351	20.62924	585.49536	-1010.42175	
900	8.990	-688.81897	-26.25215	-581.00079	725.96082	-14.13589	-496.63239	-760.11072	27.62557	637.07397	808.99109	34.46565	641.57574	20.83989	585.57391	-1010.37512	
901	9.000	-688.64496	-26.20686	-581.01233	726.30457	-14.14122	-496.57303	-759.86426	27.50738	637.08606	809.39447	34.10092	641.56091	21.10298	585.63458	-1010.34753	
902	9.010	-688.30292	-26.22384	-580.99194	726.66681	-14.20098	-496.54755	-759.65070	27.45648	637.06439	809.68854	33.95084	641.56689	21.40891	585.70026	-1010.27667	
903	9.020	-687.94159	-26.22306	-580.88000	726.72711	-14.10688	-496.51456	-759.53943	27.42653	637.07758	809.77612	34.02837	641.61652	21.55329	585.78998	-1010.22070	
904	9.030	-687.70306	-26.14351	-580.82886	726.83722	-14.00590	-496.50220	-759.32635	27.37755	637.10968	810.01605	33.98463	641.57587	21.80761	585.91077	-1010.11615	
905	9.040	-687.55072	-26.13851	-580.80450	726.95892	-13.92365	-496.42691	-759.07715	27.34618	637.15234	810.17169	33.94779	641.53442	21.97245	585.93378	-1010.07434	
906	9.050	-687.38770	-26.09446	-580.80981	727.23712	-14.05864	-496.43741	-758.85260	27.26178	637.18909	810.40692	33.91306	641.53064	22.13051	585.96442	-1010.09326	
907	9.060	-687.23804	-26.02131	-580.79895	727.41357	-14.00705	-496.39883	-758.57892	27.45962	637.30786	810.61853	33.92190	641.53650	22.33851	585.92664	-1010.09430	
908	9.070	-686.89111	-25.96662	-580.77643	727.85449	-13.96694	-496.31390	-758.38287	27.19350	637.26807	810.74146	33.89618	641.55176	22.56029	585.97876	-1010.06805	
909	9.080	-686.69281	-25.93850	-580.75867	728.15082	-13.99907	-496.25513	-758.01776	27.16394	637.33014	810.86267	33.83625	641.58209	22.88309	585.97186	-1009.90265	
910	9.090	-686.41437	-25.92075	-580.74585	728.35938	-14.02613	-496.32019	-757.70099	27.16162	637.35028	811.03290	33.78769	641.59259	23.18510	586.05261	-1009.71552	
911	9.100	-686.18280	-25.90909	-580.78467	728.43835	-14.04114	-496.42532	-757.47015	27.18302	637.28510	811.33850	33.40109	641.31665	23.49889	586.12134	-1009.51556	
912	9.110	-685.87256	-25.88243	-580.77130	728.78815	-14.09649	-496.34320	-757.21338	27.13858	637.24432	811.61053	33.38436	641.21716	23.50502	586.22540	-1009.69330	
913	9.120	-685.57703	-25.89102	-580.76569	729.20068	-14.06906	-496.29703	-756.99310	27.13044	637.21832	812.11609	33.40154	641.17267	23.86892	586.21722	-1009.66608	
914	9.130	-685.33691	-25.88368	-580.77631	729.42133	-14.02981	-496.41675	-756.77667	27.16507	637.25256	812.53296	33.53781	641.25000	24.20464	586.25928	-1009.60248	
915	9.140	-685.01904	-25.83687	-580.76843	729.58514	-13.83617	-496.46063	-756.49298	27.17440	637.29199	812.78540	33.87656	641.57001	24.58459	586.26398	-1009.69659	
916	9.150	-684.79828	-25.79717	-580.74097	729.90509	-13.91407	-496.37836	-756.25122	27.18287	637.27942	813.11475	33.87248	641.58551	24.93279	586.32446	-1009.83234	
917	9.160	-684.51074	-25.77796	-580.75665	730.03406	-13.89297	-496.43365	-755.95172	27.29273	637.35419	813.32996	33.83724	641.56653	25.11103	586.37109	-1009.89099	
918	9.170	-684.17645	-25.70503	-580.66174	730.44214	-13.74865	-496.35306	-755.83356	27.24258	637.28705	813.65247	33.89724	641.59607	25.27378	586.41199	-1009.85120	
919	9.180	-683.95203	-25.68408	-580.68188	730.82861	-13.74197	-496.31921	-755.53754	27.29016	637.32178	813.79480	33.86821	641.63342	25.50759	586.44415	-1009.85114	
920	9.190	-683.71613	-25.69192	-580.67023	731.11017	-13.78207	-496.29849	-755.28937	27.29855	637.28931	814.02112	33.93813	641.57825	25.67676	586.44025	-1009.85944	
921	9.200	-683.51556	-25.67708	-580.69995	731.28107	-13.76756	-496.30038	-755.03845	27.31141	637.27026	814.27814	34.03053	641.57623	26.05746	586.45569	-1009.75635	
922	9.210	-683.32336	-25.67909	-580.70538	731.42914	-13.81915	-496.32031	-754.75610	27.23697	637.26489	814.49426	34.08086	641.58264	26.32939	586.45422	-1009.64972	
923	9.220	-683.09955	-25.76474	-580.72467	731.58539	-13.76670	-496.28293	-754.52917	27.21926	637.29749	814.77380	34.09009	641.54907	26.50914	586.43964	-1009.65784	
924	9.230	-682.72095	-25.75255	-580.53662	731.76312	-13.72947	-496.38501	-754.25159	27.16078	637.31506	815.15332	33.87952	641.26044	26.75848	586.43829	-1009.69568	
925	9.240	-682.64258	-25.65846	-580.70660	732.17059	-13.81588	-496.27823	-754.04614	27.13358	637.32324	815.50806	33.74141	641.23981	27.03552	586.40234	-1009.71509	
926	9.250	-682.42389	-25.62626	-580.70239	732.40936	-13.83733	-496.20844	-753.79547	27.11337	637.28400	815.81134	33.53567	641.19922	27.28051	586.34924	-1009.75305	
927	9.260	-681.98907	-25.58911	-580.67151	732.69049	-13.88208	-496.26370	-753.59332	27.06655	637.22308	816.04956	33.42500	641.13849	27.47100	586.30627	-1009.80884	
928	9.270	-681.73944	-25.54460	-580.59149	733.01147	-13.83458	-496.37476	-753.40973	27.00922	637.22266	816.17328	33.69361	641.30768	27.54104	586.35004	-1009.83972	
929	9.280	-681.57996	-25.53169	-580.62592	733.30029	-13.79694	-496.35654	-753.07330	26.97730	637.22876	816.32092	33.98105	641.62665	27.80569	586.33099	-1009.89886	
930	9.290	-681.31006	-25.58429	-580.68347	733.41589	-13.83988	-496.50891	-752.97302	27.02661	637.19562	816.51892	34.06258	641.64404	27.97444	586.34839	-1009.90704	
931	9.300	-681.07306	-25.62054	-580.72961	733.52008	-13.80208	-496.52130	-752.62976	27.14558	637.23462	816.88348	34.14896	641.65375	28.12509	586.38788	-1009.87915	
932	9.310	-680.94434	-25.66625	-580.75739	733.68835	-13.79142	-496.49231	-752.33472	27.05159	637.28253	817.10016	34.16198	641.69220	28.35322	586.41693	-1009.85669	
933	9.320	-680.80164	-25.64646	-580.74695	733.85950	-13.83413	-496.44437	-752.07458	26.96121	637.30353	817.23767	34.05173	641.53058	28.59738	586.42932	-1009.84521	
934	9.330	-680.65576	-25.65446	-580.75629	734.05737	-13.88141	-496.42966	-751.86786	26.96839	637.27948	817.37646	34.00716	641.53308	28.79322	586.49054	-1009.83551	
935	9.340	-680.45306	-25.58000	-580.71515	734.27130	-13.82077	-496.34827	-751.67249	26.90658	637.28131	817.56140	33.95925	641.60223	29.06047	586.57996	-1009.73773	
